<?xml version="1.0" encoding="UTF-8"?>
<svg xmlns="http://www.w3.org/2000/svg" xmlns:xlink="http://www.w3.org/1999/xlink" width="2511.5pt" height="1377.64pt" viewBox="0 0 2511.5 1377.64" version="1.1">
<g id="surface1">
<path style=" stroke:none;fill-rule:nonzero;fill:rgb(6.47583%,5.92804%,5.235291%);fill-opacity:1;" d="M 0 1377.640625 L 2511.496094 1377.640625 L 2511.496094 0.00390625 L 0 0.00390625 Z M 0 1377.640625 "/>
<path style=" stroke:none;fill-rule:evenodd;fill:rgb(100%,100%,100%);fill-opacity:1;" d="M 1456.613281 459.933594 L 1430.640625 490.160156 C 1427.953125 488.769531 1424.664062 489.441406 1422.726562 491.726562 C 1424.785156 490.375 1427.121094 490.007812 1429.746094 491.660156 C 1432.371094 493.308594 1432.816406 498.953125 1431.78125 500.597656 C 1430.742188 502.246094 1431.429688 501.109375 1431.234375 501.34375 C 1431.988281 500.847656 1432.5 500.421875 1433.160156 499.378906 C 1433.816406 498.332031 1434.265625 496.640625 1434.121094 495.246094 L 1470.238281 458.289062 C 1490.300781 463.914062 1473.792969 468.101562 1455.21875 491.300781 C 1455.152344 492.324219 1456.539062 494.230469 1458.128906 491.902344 C 1460.96875 487.742188 1469.117188 480.761719 1480.726562 469.4375 C 1492.9375 457.53125 1463.453125 446.746094 1453.875 454.652344 C 1463.140625 450.792969 1456.613281 459.933594 1456.613281 459.933594 "/>
<path style=" stroke:none;fill-rule:nonzero;fill:rgb(100%,100%,100%);fill-opacity:1;" d="M 1165.238281 625.132812 C 1166.988281 606.242188 1172.164062 591.960938 1185.890625 586.808594 C 1186.351562 587.230469 1188.976562 593.679688 1189.136719 593.828125 C 1185.34375 596.871094 1180.757812 624.9375 1180.71875 638.703125 L 1186.894531 641.199219 C 1186.683594 621.574219 1190.03125 604.261719 1199.082031 590.386719 C 1195.980469 586.160156 1190.898438 580.332031 1185.597656 574.769531 L 1179.957031 577.285156 C 1180.832031 577.269531 1160.875 593.085938 1157.710938 622.121094 Z M 1165.238281 625.132812 "/>
<path style=" stroke:none;fill-rule:nonzero;fill:rgb(100%,100%,100%);fill-opacity:1;" d="M 1282.023438 679.636719 C 1281.75 678.636719 1281.472656 677.636719 1281.1875 676.644531 C 1272.894531 690.703125 1257.726562 700.269531 1240.210938 700.625 C 1225.765625 700.917969 1212.664062 694.890625 1203.546875 685.082031 L 1201.777344 686.535156 C 1211.328125 696.863281 1225.085938 703.21875 1240.257812 702.90625 C 1257.824219 702.550781 1273.132812 693.347656 1282.023438 679.636719 "/>
<path style=" stroke:none;fill-rule:nonzero;fill:rgb(100%,100%,100%);fill-opacity:1;" d="M 1090.824219 535.1875 C 1121.539062 539.824219 1144.074219 548.683594 1169.847656 568.914062 L 1176.917969 566.109375 C 1174.460938 563.800781 1172.1875 561.804688 1170.308594 560.34375 L 1194.246094 540.355469 C 1177.261719 550.625 1168.769531 555.757812 1168.769531 555.757812 C 1152.15625 545.484375 1143.847656 540.351562 1143.847656 540.351562 C 1150.578125 533.140625 1153.941406 529.535156 1153.941406 529.535156 L 1136.78125 538.113281 C 1119.890625 528.238281 1099.765625 517.929688 1076.402344 507.183594 L 1234.609375 533.148438 L 1239.042969 525.207031 L 1270.386719 529.011719 L 1273.289062 527.859375 L 1275.183594 526.960938 L 1170.296875 495.949219 L 1144.679688 502.261719 C 1116.171875 498.234375 1085.351562 494.933594 1052.226562 492.351562 L 1011.167969 465.730469 L 1052.601562 481.730469 L 1145.789062 490.105469 L 1170.550781 484.640625 L 1255.347656 509.441406 C 1264.472656 486.824219 1243.054688 467.414062 1191.09375 451.210938 C 1195.96875 442.960938 1205.109375 438.253906 1218.511719 437.097656 C 1308.667969 470.023438 1352.914062 480.363281 1381.773438 474.699219 C 1389.183594 470.972656 1396.871094 467.085938 1404.835938 463.042969 C 1328.421875 413.371094 1213.710938 383.199219 1157.992188 475.757812 C 1132.339844 482.933594 1086.03125 477.441406 1019.074219 459.285156 L 1007.332031 461.585938 L 990.703125 426.558594 L 841.128906 433.722656 L 838.613281 440.203125 L 1000.847656 487.5 C 1049.796875 492.941406 1079.785156 508.835938 1090.824219 535.1875 "/>
<path style=" stroke:none;fill-rule:nonzero;fill:rgb(100%,100%,100%);fill-opacity:1;" d="M 1218.199219 651.148438 L 1217.0625 651.445312 C 1218.925781 658.894531 1224.355469 664.898438 1231.398438 667.582031 L 1232.117188 666.59375 C 1225.277344 664.097656 1219.992188 658.328125 1218.199219 651.148438 "/>
<path style=" stroke:none;fill-rule:nonzero;fill:rgb(100%,100%,100%);fill-opacity:1;" d="M 1247.234375 635.929688 C 1245.082031 634.28125 1242.378906 633.324219 1239.460938 633.382812 C 1233.152344 633.511719 1228.042969 638.339844 1227.40625 644.460938 C 1227.355469 644.964844 1227.335938 645.480469 1227.34375 646.003906 C 1227.363281 646.878906 1227.46875 647.734375 1227.660156 648.554688 L 1229.777344 647.867188 C 1229.648438 647.25 1229.574219 646.613281 1229.5625 645.960938 C 1229.449219 640.351562 1233.898438 635.714844 1239.507812 635.601562 C 1241.65625 635.554688 1243.660156 636.183594 1245.324219 637.289062 Z M 1247.234375 635.929688 "/>
<path style=" stroke:none;fill-rule:nonzero;fill:rgb(100%,100%,100%);fill-opacity:1;" d="M 1236.875 646.230469 L 1230.738281 647.847656 C 1231.382812 650.621094 1233.273438 652.902344 1235.78125 654.085938 L 1239.542969 648.628906 C 1238.199219 648.550781 1237.09375 647.542969 1236.875 646.230469 "/>
<path style=" stroke:none;fill-rule:nonzero;fill:rgb(100%,100%,100%);fill-opacity:1;" d="M 1238.539062 623.609375 C 1238.777344 623.597656 1239.019531 623.589844 1239.261719 623.582031 C 1242.382812 623.519531 1245.367188 624.101562 1248.082031 625.210938 L 1248.796875 624.234375 C 1245.863281 622.996094 1242.628906 622.335938 1239.238281 622.40625 C 1238.882812 622.414062 1238.523438 622.429688 1238.171875 622.453125 C 1230.488281 622.953125 1223.847656 627.15625 1219.972656 633.269531 L 1224.714844 636.246094 C 1223.160156 638.695312 1222.1875 641.554688 1221.996094 644.613281 L 1224.066406 644.554688 C 1224.667969 636.585938 1231.242188 630.230469 1239.394531 630.066406 C 1243.460938 629.984375 1247.195312 631.453125 1250.035156 633.933594 L 1251.753906 632.707031 C 1248.632812 629.824219 1244.480469 628.050781 1239.925781 628 Z M 1238.539062 623.609375 "/>
<path style=" stroke:none;fill-rule:nonzero;fill:rgb(100%,100%,100%);fill-opacity:1;" d="M 1251.382812 641.628906 C 1251.808594 642.84375 1252.054688 644.144531 1252.082031 645.503906 C 1252.132812 647.933594 1251.476562 650.214844 1250.304688 652.152344 L 1251.683594 652.96875 C 1253.007812 650.78125 1253.742188 648.210938 1253.6875 645.46875 C 1253.65625 643.96875 1253.390625 642.527344 1252.925781 641.179688 Z M 1251.382812 641.628906 "/>
<path style=" stroke:none;fill-rule:nonzero;fill:rgb(100%,100%,100%);fill-opacity:1;" d="M 1449.199219 459.261719 L 1317.234375 516.109375 C 1310.5 529.417969 1305.613281 539.933594 1302.554688 546.757812 L 1314.699219 542.285156 L 1321.996094 526.804688 C 1368.859375 505.796875 1411.191406 486.910156 1436.101562 475.808594 L 1446.835938 464.832031 C 1446.835938 464.832031 1450.050781 460.820312 1449.199219 459.261719 "/>
<path style=" stroke:none;fill-rule:nonzero;fill:rgb(100%,100%,100%);fill-opacity:1;" d="M 1240.59375 654.925781 C 1241.335938 654.855469 1242.054688 654.695312 1242.734375 654.460938 L 1242.488281 652.3125 L 1241.945312 647.570312 C 1241.59375 648.003906 1241.117188 648.332031 1240.574219 648.5 L 1237.386719 654.671875 C 1238.1875 654.878906 1239.03125 654.984375 1239.902344 654.964844 C 1240.132812 654.960938 1240.363281 654.945312 1240.59375 654.925781 "/>
<path style=" stroke:none;fill-rule:nonzero;fill:rgb(100%,100%,100%);fill-opacity:1;" d="M 1236.152344 661.039062 L 1237.257812 659.515625 C 1233.316406 658.816406 1229.929688 656.457031 1227.871094 653.179688 L 1226.472656 654.175781 C 1228.648438 657.589844 1232.105469 660.101562 1236.152344 661.039062 "/>
<path style=" stroke:none;fill-rule:nonzero;fill:rgb(100%,100%,100%);fill-opacity:1;" d="M 1178.316406 674.515625 C 1176.308594 674.558594 1174.667969 676.035156 1174.355469 677.945312 L 1172.429688 678.511719 C 1172.429688 678.585938 1172.429688 678.660156 1172.429688 678.730469 C 1172.5 682.027344 1175.222656 684.644531 1178.519531 684.578125 C 1181 684.527344 1183.09375 682.972656 1183.953125 680.800781 L 1182.410156 679.4375 L 1182.410156 679.445312 C 1182.46875 679.148438 1182.5 678.84375 1182.492188 678.527344 C 1182.449219 676.265625 1180.578125 674.472656 1178.316406 674.515625 "/>
<path style=" stroke:none;fill-rule:nonzero;fill:rgb(100%,100%,100%);fill-opacity:1;" d="M 1188.714844 678.402344 C 1188.683594 677.039062 1188.394531 675.738281 1187.886719 674.558594 C 1186.28125 670.804688 1182.519531 668.210938 1178.1875 668.296875 C 1174.1875 668.378906 1170.765625 670.730469 1169.121094 674.09375 C 1169.429688 674.25 1169.726562 674.398438 1170.011719 674.542969 C 1171.492188 671.496094 1174.589844 669.367188 1178.210938 669.292969 C 1182.15625 669.210938 1185.582031 671.601562 1187.011719 675.039062 C 1187.445312 676.082031 1187.691406 677.226562 1187.71875 678.421875 C 1187.75 680.121094 1187.332031 681.71875 1186.566406 683.105469 L 1187.328125 683.78125 C 1188.242188 682.199219 1188.753906 680.359375 1188.714844 678.402344 "/>
<path style=" stroke:none;fill-rule:nonzero;fill:rgb(100%,100%,100%);fill-opacity:1;" d="M 1195.492188 714.742188 C 1197.722656 714.695312 1199.570312 716.46875 1199.613281 718.699219 C 1199.660156 720.929688 1197.886719 722.777344 1195.65625 722.820312 C 1193.425781 722.867188 1191.582031 721.097656 1191.535156 718.863281 C 1191.488281 716.632812 1193.261719 714.785156 1195.492188 714.742188 M 1202.40625 721.929688 C 1201.316406 724.324219 1198.78125 726.03125 1195.792969 726.09375 C 1192.5 726.160156 1189.671875 724.207031 1188.695312 721.460938 L 1190.453125 720.554688 C 1191.203125 722.714844 1193.273438 724.246094 1195.683594 724.195312 C 1197.917969 724.152344 1199.804688 722.761719 1200.597656 720.816406 Z M 1186.074219 718.976562 C 1186.179688 724.222656 1190.519531 728.390625 1195.765625 728.28125 C 1201.015625 728.175781 1205.179688 723.835938 1205.074219 718.589844 C 1204.980469 713.828125 1201.394531 709.957031 1196.8125 709.359375 C 1191.816406 687.4375 1187.972656 666.527344 1187.082031 647.566406 L 1185.941406 647.136719 C 1186.109375 653.070312 1186.589844 658.746094 1187.386719 664.164062 L 1180.882812 663.191406 L 1180.53125 656.9375 L 1182.429688 655.941406 L 1182.148438 645.710938 L 1180.824219 645.210938 C 1180.910156 647.800781 1181.050781 650.511719 1181.257812 653.351562 L 1167.585938 650.089844 C 1166 643.585938 1165.183594 637.695312 1165.027344 632.378906 L 1157.234375 629.589844 C 1157.085938 635.296875 1157.300781 641.675781 1157.515625 648.96875 C 1156.953125 648.769531 1156.371094 648.566406 1155.785156 648.351562 L 1150.429688 646.324219 C 1121.824219 635.085938 1075.816406 611.710938 1052.382812 624.460938 L 1046.050781 627.902344 L 1013.269531 645.046875 L 1083.367188 690.972656 L 1132.421875 673.8125 L 1135.550781 672.71875 L 1147.914062 667.820312 C 1155.335938 665.257812 1160.929688 663.910156 1164.6875 663.78125 L 1165.265625 670.398438 C 1158.199219 671.265625 1152.246094 673.203125 1147.402344 676.214844 L 1150.429688 694.425781 L 1166.488281 694.394531 L 1153.886719 690.523438 L 1167.558594 689.066406 L 1175.746094 707.46875 L 1172.136719 704.007812 L 1169.039062 703.773438 L 1172.207031 714.613281 L 1180 713.867188 L 1176.023438 692.285156 L 1182.933594 691.40625 L 1187.992188 708.253906 L 1189.75 707.773438 L 1184.875 688.484375 C 1183.066406 689.695312 1180.902344 690.417969 1178.566406 690.464844 C 1172.425781 690.589844 1167.285156 685.992188 1166.613281 680.003906 C 1166.578125 679.648438 1166.550781 679.285156 1166.542969 678.921875 C 1166.410156 672.414062 1171.582031 667.03125 1178.089844 666.898438 C 1184.597656 666.765625 1189.980469 671.933594 1190.113281 678.441406 C 1190.15625 680.679688 1189.578125 682.785156 1188.53125 684.585938 C 1188.007812 685.488281 1187.371094 686.3125 1186.636719 687.039062 L 1191.964844 709.988281 C 1188.441406 711.4375 1185.992188 714.9375 1186.074219 718.976562 "/>
<path style=" stroke:none;fill-rule:nonzero;fill:rgb(100%,100%,100%);fill-opacity:1;" d="M 1169.117188 679.484375 C 1169.566406 684.304688 1173.671875 688.03125 1178.589844 687.929688 C 1180.5625 687.890625 1182.382812 687.238281 1183.867188 686.160156 C 1184.976562 685.355469 1185.898438 684.3125 1186.566406 683.105469 L 1185.46875 682.140625 C 1184.203125 684.683594 1181.597656 686.449219 1178.558594 686.511719 C 1174.296875 686.597656 1170.753906 683.296875 1170.511719 679.074219 Z M 1169.117188 679.484375 "/>
<path style=" stroke:none;fill-rule:nonzero;fill:rgb(100%,100%,100%);fill-opacity:1;" d="M 1240.074219 663.503906 C 1238.261719 663.542969 1236.503906 663.304688 1234.847656 662.835938 L 1232.117188 666.59375 C 1234.625 667.507812 1237.335938 667.980469 1240.164062 667.925781 C 1248.085938 667.761719 1254.953125 663.46875 1258.746094 657.140625 L 1254.9375 654.890625 C 1251.898438 659.945312 1246.40625 663.375 1240.074219 663.503906 "/>
<path style=" stroke:none;fill-rule:nonzero;fill:rgb(100%,100%,100%);fill-opacity:1;" d="M 1118.476562 561.890625 C 1109.109375 552.292969 1026.085938 523.109375 1006.796875 515.195312 C 959.082031 495.617188 904.523438 472.160156 850.625 447.222656 C 947.34375 498.496094 995.703125 524.128906 995.703125 524.128906 L 1065.453125 544.96875 C 1115.882812 560.457031 1119.914062 562.445312 1108.613281 583.488281 C 1117.179688 572.347656 1126.589844 570.203125 1118.476562 561.890625 "/>
<path style=" stroke:none;fill-rule:nonzero;fill:rgb(100%,100%,100%);fill-opacity:1;" d="M 1254.9375 654.890625 C 1256.605469 652.121094 1257.535156 648.863281 1257.464844 645.390625 C 1257.429688 643.550781 1257.113281 641.78125 1256.558594 640.125 L 1254.574219 640.703125 C 1255.078125 642.191406 1255.367188 643.777344 1255.402344 645.433594 C 1255.464844 648.507812 1254.640625 651.390625 1253.160156 653.839844 Z M 1254.9375 654.890625 "/>
<path style=" stroke:none;fill-rule:nonzero;fill:rgb(100%,100%,100%);fill-opacity:1;" d="M 1185.757812 675.726562 C 1184.585938 672.734375 1181.640625 670.640625 1178.238281 670.710938 C 1175.164062 670.773438 1172.535156 672.585938 1171.28125 675.175781 C 1171.945312 675.507812 1172.523438 675.792969 1173.011719 676.039062 C 1173.957031 674.070312 1175.945312 672.691406 1178.277344 672.644531 C 1180.9375 672.589844 1183.222656 674.285156 1184.042969 676.671875 Z M 1185.757812 675.726562 "/>
<path style=" stroke:none;fill-rule:nonzero;fill:rgb(100%,100%,100%);fill-opacity:1;" d="M 1240.058594 693.1875 C 1236.925781 693.25 1233.867188 692.960938 1230.917969 692.359375 L 1229.699219 695.113281 C 1233.046875 695.851562 1236.539062 696.207031 1240.117188 696.132812 C 1257.582031 695.777344 1272.472656 685.339844 1279.347656 670.492188 C 1278.898438 669.039062 1278.429688 667.597656 1277.957031 666.164062 C 1272.265625 681.644531 1257.546875 692.832031 1240.058594 693.1875 "/>
<path style=" stroke:none;fill-rule:nonzero;fill:rgb(100%,100%,100%);fill-opacity:1;" d="M 1242.082031 610.785156 C 1240.863281 610.703125 1239.628906 610.671875 1238.382812 610.695312 C 1226.996094 610.929688 1216.777344 615.753906 1209.464844 623.367188 L 1215.0625 626.121094 C 1213.347656 627.726562 1211.789062 629.503906 1210.421875 631.421875 L 1212.515625 632.425781 C 1218.398438 624.386719 1227.824219 619.089844 1238.550781 618.871094 C 1242.28125 618.796875 1245.878906 619.339844 1249.246094 620.410156 L 1250.558594 618.441406 C 1247.117188 617.273438 1243.4375 616.625 1239.621094 616.582031 Z M 1242.082031 610.785156 "/>
<path style=" stroke:none;fill-rule:nonzero;fill:rgb(100%,100%,100%);fill-opacity:1;" d="M 1263.058594 645.277344 C 1263.011719 642.9375 1262.621094 640.679688 1261.9375 638.5625 L 1260.808594 638.890625 C 1261.464844 640.914062 1261.839844 643.066406 1261.882812 645.300781 C 1261.972656 649.625 1260.816406 653.6875 1258.746094 657.140625 L 1259.757812 657.738281 C 1261.9375 654.101562 1263.152344 649.828125 1263.058594 645.277344 "/>
<path style=" stroke:none;fill-rule:nonzero;fill:rgb(100%,100%,100%);fill-opacity:1;" d="M 1238.230469 603.257812 C 1236.523438 603.292969 1234.832031 603.414062 1233.171875 603.621094 L 1232.320312 601.429688 C 1225.988281 602.285156 1220.039062 604.300781 1214.683594 607.246094 L 1216.21875 609.011719 C 1213.683594 610.375 1211.285156 611.953125 1209.042969 613.722656 L 1212.855469 616.460938 C 1219.980469 611.15625 1228.765625 607.945312 1238.324219 607.75 C 1242.324219 607.667969 1246.210938 608.121094 1249.917969 609.042969 C 1248.695312 607.253906 1247.445312 605.488281 1246.171875 603.738281 C 1243.582031 603.371094 1240.933594 603.203125 1238.230469 603.257812 "/>
<path style=" stroke:none;fill-rule:nonzero;fill:rgb(100%,100%,100%);fill-opacity:1;" d="M 1468.523438 699.082031 C 1475.851562 682.714844 1487.453125 669.597656 1501.421875 660.457031 C 1485.578125 669.628906 1472.363281 683.6875 1464.304688 701.671875 C 1460.371094 710.457031 1457.96875 719.53125 1456.953125 728.609375 L 1460.914062 728.609375 C 1461.730469 718.671875 1464.210938 708.699219 1468.523438 699.082031 "/>
<path style=" stroke:none;fill-rule:nonzero;fill:rgb(100%,100%,100%);fill-opacity:1;" d="M 1464 718.59375 C 1463.449219 722.019531 1463.035156 725.351562 1462.71875 728.609375 L 1463.984375 728.609375 C 1463.882812 725.34375 1463.878906 722.011719 1464 718.59375 "/>
<path style=" stroke:none;fill-rule:nonzero;fill:rgb(100%,100%,100%);fill-opacity:1;" d="M 1463.542969 632.992188 L 1463.542969 632.988281 C 1463.542969 632.988281 1463.542969 632.992188 1463.539062 632.992188 Z M 1463.542969 632.992188 "/>
<path style=" stroke:none;fill-rule:nonzero;fill:rgb(100%,100%,100%);fill-opacity:1;" d="M 1498.195312 711.042969 C 1496.570312 711.074219 1495.222656 709.785156 1495.191406 708.15625 C 1495.15625 706.53125 1496.449219 705.1875 1498.074219 705.152344 C 1499.703125 705.117188 1501.046875 706.410156 1501.082031 708.039062 C 1501.113281 709.664062 1499.820312 711.007812 1498.195312 711.042969 M 1499.996094 724.996094 C 1499.503906 726.4375 1497.9375 727.203125 1496.5 726.710938 C 1495.058594 726.21875 1494.289062 724.652344 1494.78125 723.210938 C 1495.277344 721.773438 1496.84375 721.003906 1498.28125 721.5 C 1499.722656 721.992188 1500.488281 723.558594 1499.996094 724.996094 M 1510.167969 692.785156 C 1510.660156 691.347656 1512.226562 690.578125 1513.664062 691.070312 C 1515.105469 691.5625 1515.875 693.128906 1515.382812 694.570312 C 1514.890625 696.007812 1513.320312 696.777344 1511.882812 696.285156 C 1510.441406 695.792969 1509.675781 694.226562 1510.167969 692.785156 M 1514.539062 668.714844 L 1514.523438 668.667969 L 1514.511719 668.644531 L 1514.507812 668.632812 C 1502.871094 641.058594 1496.722656 626.910156 1496.722656 626.910156 C 1500.21875 624.875 1501.964844 623.855469 1501.964844 623.855469 C 1501.296875 622.296875 1500.960938 621.519531 1500.960938 621.519531 C 1498.917969 622.59375 1497.898438 623.128906 1497.898438 623.128906 L 1493.300781 613.0625 C 1496.25 611.613281 1499.261719 610.269531 1502.324219 609.03125 L 1510.285156 630.910156 C 1510.285156 630.910156 1508.046875 632.011719 1503.574219 634.210938 C 1503.574219 634.210938 1503.878906 634.773438 1504.492188 635.890625 C 1503.882812 636.347656 1504.203125 636.257812 1511.238281 632.71875 L 1516.171875 644.890625 L 1516.894531 646.664062 L 1517.601562 648.414062 L 1518.300781 650.132812 L 1518.988281 651.828125 L 1519.660156 653.492188 L 1520.324219 655.125 L 1520.980469 656.734375 L 1521.617188 658.316406 L 1522.246094 659.867188 L 1522.867188 661.390625 L 1523.472656 662.890625 L 1524.070312 664.355469 L 1524.65625 665.796875 L 1525.226562 667.210938 L 1525.789062 668.59375 L 1526.339844 669.949219 L 1526.875 671.28125 L 1526.953125 671.460938 L 1532.847656 685.996094 L 1532.851562 686.003906 L 1535.171875 691.722656 L 1536.898438 695.976562 L 1541.921875 708.367188 L 1535.019531 713.113281 C 1535.019531 713.113281 1534.8125 712.601562 1535.640625 714.648438 C 1535.640625 714.648438 1540.09375 712.679688 1544.183594 710.828125 C 1544.183594 710.828125 1544.867188 712.457031 1547.09375 717.5625 C 1543.226562 718.304688 1539.816406 720.304688 1537.292969 723.109375 C 1534.617188 716.664062 1532.066406 710.535156 1529.644531 704.722656 L 1529.613281 704.65625 Z M 1511.457031 605.730469 L 1531.027344 657.78125 L 1535.128906 668.6875 C 1534.257812 668.917969 1533.394531 669.167969 1532.535156 669.4375 L 1508.449219 606.707031 C 1508.964844 606.535156 1510.941406 605.894531 1511.457031 605.730469 M 1540.683594 683.457031 L 1542.878906 689.296875 C 1542.042969 689.476562 1541.214844 689.683594 1540.398438 689.910156 L 1538.171875 684.117188 C 1539 683.878906 1539.835938 683.65625 1540.683594 683.457031 M 1553.480469 717.496094 C 1552.636719 717.351562 1551.773438 717.265625 1550.894531 717.246094 L 1542.050781 694.214844 C 1542.863281 694 1543.683594 693.808594 1544.511719 693.644531 Z M 1523.304688 699.0625 L 1518.832031 694.765625 C 1519.578125 694.105469 1520.34375 693.472656 1521.125 692.859375 L 1523.671875 698.75 C 1523.550781 698.851562 1523.429688 698.953125 1523.304688 699.0625 M 1569.652344 685.097656 C 1575.050781 687.042969 1580.03125 689.878906 1584.410156 693.429688 L 1580.113281 697.90625 C 1576.859375 695.328125 1573.242188 693.199219 1569.351562 691.601562 C 1569.425781 689.375 1569.527344 687.207031 1569.652344 685.097656 M 1577.792969 683.6875 C 1578.285156 682.246094 1579.851562 681.480469 1581.292969 681.972656 C 1582.730469 682.464844 1583.5 684.03125 1583.007812 685.472656 C 1582.515625 686.910156 1580.949219 687.679688 1579.507812 687.1875 C 1578.070312 686.691406 1577.300781 685.125 1577.792969 683.6875 M 1590.582031 699.355469 C 1597.359375 707.050781 1601.851562 716.824219 1602.972656 727.628906 L 1596.769531 727.753906 C 1595.71875 718.652344 1591.9375 710.40625 1586.285156 703.832031 Z M 1594.917969 688.199219 C 1596.542969 688.167969 1597.890625 689.460938 1597.921875 691.085938 C 1597.953125 692.710938 1596.664062 694.058594 1595.035156 694.089844 C 1593.410156 694.125 1592.0625 692.832031 1592.03125 691.207031 C 1591.996094 689.578125 1593.289062 688.234375 1594.917969 688.199219 M 1600.679688 708.953125 C 1601.167969 707.515625 1602.738281 706.746094 1604.175781 707.238281 C 1605.617188 707.730469 1606.382812 709.296875 1605.890625 710.738281 C 1605.398438 712.179688 1603.832031 712.945312 1602.394531 712.453125 C 1600.953125 711.960938 1600.183594 710.394531 1600.679688 708.953125 M 1611.28125 720.769531 C 1612.90625 720.734375 1614.253906 722.027344 1614.285156 723.652344 C 1614.320312 725.277344 1613.027344 726.625 1611.402344 726.65625 C 1609.773438 726.691406 1608.429688 725.398438 1608.394531 723.773438 C 1608.363281 722.148438 1609.65625 720.800781 1611.28125 720.769531 M 1512.90625 700.933594 L 1517.382812 705.230469 C 1512.1875 711.789062 1508.828125 719.84375 1507.984375 728.609375 L 1512.582031 728.609375 C 1513.554688 719.578125 1517.523438 711.414062 1523.507812 705.183594 C 1524.175781 704.484375 1524.867188 703.8125 1525.585938 703.167969 L 1535.339844 725.730469 C 1534.78125 726.636719 1534.316406 727.605469 1533.929688 728.609375 L 1537.144531 728.609375 C 1539.472656 723.730469 1544.394531 720.308594 1550.167969 720.191406 C 1551.753906 720.160156 1553.285156 720.378906 1554.726562 720.8125 L 1555.472656 722.796875 C 1553.847656 722.125 1552.066406 721.773438 1550.199219 721.8125 C 1545.339844 721.910156 1541.160156 724.640625 1538.960938 728.609375 L 1561.972656 728.609375 C 1561.277344 727.355469 1560.394531 726.222656 1559.347656 725.261719 C 1561.066406 725.921875 1562.410156 727.164062 1563.558594 728.609375 L 1567.863281 728.609375 C 1567.804688 717.421875 1569.105469 704.734375 1569.230469 696.558594 C 1573.285156 698.433594 1576.976562 700.96875 1580.164062 704.027344 C 1586.769531 710.371094 1591.203125 718.96875 1592.238281 728.609375 L 1618.777344 728.609375 C 1617.671875 711.445312 1610.09375 696.101562 1598.480469 684.953125 C 1590.882812 677.65625 1581.558594 672.15625 1571.203125 669.109375 C 1571.777344 664.949219 1572.457031 661.054688 1573.230469 657.40625 C 1576.511719 641.894531 1581.421875 630.777344 1586.539062 622.148438 L 1622.761719 618.789062 L 1635.371094 617.617188 C 1610.238281 595.761719 1568.148438 585.648438 1509.105469 587.273438 C 1508.601562 587.695312 1508.101562 588.113281 1507.601562 588.53125 C 1506.984375 589.050781 1506.371094 589.570312 1505.761719 590.085938 C 1505.285156 590.492188 1504.808594 590.898438 1504.339844 591.300781 C 1503.707031 591.839844 1503.082031 592.378906 1502.460938 592.917969 C 1501.992188 593.324219 1501.527344 593.730469 1501.0625 594.136719 C 1500.472656 594.652344 1499.890625 595.167969 1499.308594 595.683594 C 1498.84375 596.09375 1498.378906 596.503906 1497.921875 596.917969 C 1497.363281 597.417969 1496.804688 597.917969 1496.253906 598.417969 C 1495.773438 598.855469 1495.292969 599.289062 1494.816406 599.726562 C 1494.324219 600.175781 1493.835938 600.625 1493.351562 601.074219 C 1492.863281 601.523438 1492.382812 601.972656 1491.90625 602.417969 C 1491.410156 602.882812 1490.917969 603.347656 1490.429688 603.808594 C 1489.9375 604.273438 1489.449219 604.738281 1488.96875 605.203125 C 1488.515625 605.636719 1488.066406 606.070312 1487.621094 606.5 C 1487.128906 606.976562 1486.644531 607.449219 1486.160156 607.925781 C 1485.742188 608.339844 1485.320312 608.75 1484.90625 609.167969 C 1484.40625 609.664062 1483.910156 610.160156 1483.417969 610.652344 C 1483.046875 611.027344 1482.679688 611.398438 1482.316406 611.769531 C 1481.78125 612.316406 1481.25 612.859375 1480.726562 613.402344 C 1480.382812 613.753906 1480.042969 614.109375 1479.707031 614.460938 C 1479.164062 615.027344 1478.625 615.59375 1478.09375 616.160156 C 1477.792969 616.480469 1477.496094 616.796875 1477.195312 617.113281 C 1476.640625 617.710938 1476.09375 618.308594 1475.546875 618.902344 C 1475.285156 619.1875 1475.023438 619.472656 1474.765625 619.757812 C 1474.203125 620.375 1473.648438 620.992188 1473.097656 621.613281 C 1472.871094 621.863281 1472.644531 622.117188 1472.421875 622.371094 C 1471.859375 623.007812 1471.304688 623.644531 1470.75 624.28125 C 1470.527344 624.535156 1470.308594 624.792969 1470.085938 625.050781 C 1469.527344 625.699219 1468.972656 626.351562 1468.425781 627 L 1467.835938 627.703125 C 1467.28125 628.367188 1466.730469 629.035156 1466.183594 629.699219 L 1465.628906 630.382812 C 1465.074219 631.066406 1464.523438 631.753906 1463.976562 632.441406 L 1463.542969 632.988281 C 1470.960938 626.445312 1479.109375 620.703125 1487.851562 615.898438 L 1514.746094 678.101562 C 1511.011719 680.667969 1507.554688 683.609375 1504.429688 686.863281 C 1493.867188 697.863281 1487.082031 712.480469 1486.046875 728.609375 L 1501.761719 728.609375 C 1502.640625 718.1875 1506.664062 708.632812 1512.90625 700.933594 "/>
<path style=" stroke:none;fill-rule:nonzero;fill:rgb(100%,100%,100%);fill-opacity:1;" d="M 890.136719 690.898438 L 893.714844 694.335938 C 889.410156 699.773438 886.65625 706.488281 886.113281 713.796875 L 881.152344 713.898438 C 881.699219 705.226562 884.96875 697.269531 890.136719 690.898438 M 878.367188 698.984375 C 877.066406 699.011719 875.992188 697.976562 875.964844 696.675781 C 875.9375 695.375 876.972656 694.300781 878.273438 694.273438 C 879.574219 694.246094 880.648438 695.28125 880.675781 696.582031 C 880.703125 697.882812 879.671875 698.960938 878.367188 698.984375 M 879.808594 710.148438 C 879.414062 711.300781 878.164062 711.914062 877.011719 711.519531 C 875.859375 711.125 875.246094 709.871094 875.640625 708.71875 C 876.03125 707.566406 877.285156 706.957031 878.4375 707.347656 C 879.589844 707.742188 880.203125 708.996094 879.808594 710.148438 M 874.933594 727.945312 C 873.632812 727.972656 872.554688 726.9375 872.527344 725.636719 C 872.503906 724.335938 873.535156 723.257812 874.835938 723.234375 C 876.136719 723.207031 877.214844 724.238281 877.242188 725.542969 C 877.265625 726.84375 876.234375 727.917969 874.933594 727.945312 M 887.945312 684.382812 C 888.339844 683.230469 889.59375 682.613281 890.746094 683.007812 C 891.894531 683.402344 892.511719 684.65625 892.117188 685.808594 C 891.722656 686.960938 890.46875 687.574219 889.316406 687.179688 C 888.164062 686.785156 887.550781 685.53125 887.945312 684.382812 M 917.492188 676.050781 L 917.59375 681.011719 C 910.308594 681.851562 903.714844 684.878906 898.457031 689.398438 L 894.875 685.964844 C 901.03125 680.542969 908.847656 676.949219 917.492188 676.050781 M 897.933594 672.726562 C 899.234375 672.703125 900.3125 673.734375 900.339844 675.035156 C 900.363281 676.335938 899.332031 677.414062 898.03125 677.441406 C 896.730469 677.464844 895.652344 676.433594 895.625 675.132812 C 895.597656 673.832031 896.632812 672.753906 897.933594 672.726562 M 912.128906 671.757812 C 912.523438 670.609375 913.773438 669.996094 914.925781 670.390625 C 916.078125 670.78125 916.691406 672.035156 916.296875 673.1875 C 915.90625 674.339844 914.652344 674.953125 913.5 674.558594 C 912.347656 674.164062 911.734375 672.910156 912.128906 671.757812 M 921.085938 684.449219 C 926.433594 684.34375 931.503906 685.550781 935.980469 687.777344 L 895.65625 709.714844 L 889.886719 712.851562 C 890.699219 705.699219 893.871094 699.242188 898.617188 694.296875 C 904.296875 688.378906 912.234375 684.628906 921.085938 684.449219 M 944.785156 682.988281 L 939.824219 685.6875 C 935.242188 682.992188 930.011719 681.289062 924.433594 680.875 L 924.332031 675.914062 C 931.882812 676.386719 938.890625 678.929688 944.785156 682.988281 M 929.9375 667.125 C 931.238281 667.097656 932.3125 668.132812 932.339844 669.433594 C 932.367188 670.734375 931.335938 671.8125 930.035156 671.835938 C 928.730469 671.863281 927.65625 670.832031 927.628906 669.527344 C 927.601562 668.226562 928.636719 667.152344 929.9375 667.125 M 942.039062 677.101562 C 942.433594 675.953125 943.6875 675.335938 944.839844 675.730469 C 945.992188 676.125 946.601562 677.378906 946.210938 678.53125 C 945.816406 679.679688 944.5625 680.296875 943.410156 679.902344 C 942.261719 679.507812 941.644531 678.253906 942.039062 677.101562 M 881.289062 720.738281 L 886.253906 720.640625 C 886.574219 723.40625 887.210938 726.078125 888.125 728.609375 L 973.523438 728.609375 C 973.667969 727.980469 973.839844 727.359375 973.964844 726.71875 L 1009.542969 716.121094 L 1025.53125 711.359375 C 1025.640625 717.113281 1025.277344 722.882812 1024.441406 728.609375 L 1026.789062 728.609375 C 1027.332031 722.722656 1027.398438 716.808594 1026.953125 710.933594 L 1028.441406 710.492188 L 1007.988281 699.953125 L 970.660156 680.71875 L 971.058594 668.695312 L 956.785156 676.460938 C 947.152344 668.023438 934.464844 663.019531 920.65625 663.296875 C 905.964844 663.597656 892.785156 669.820312 883.355469 679.644531 C 873.925781 689.464844 868.242188 702.886719 868.539062 717.578125 C 868.617188 721.371094 869.09375 725.058594 869.921875 728.609375 L 882.9375 728.609375 C 882.148438 726.082031 881.574219 723.457031 881.289062 720.738281 "/>
<path style=" stroke:none;fill-rule:nonzero;fill:rgb(100%,100%,100%);fill-opacity:1;" d="M 1630.277344 629.386719 C 1651.371094 651.558594 1664.964844 677.558594 1670.8125 704.886719 C 1666.875 692.515625 1660.34375 680.726562 1651.222656 670.265625 C 1662.8125 688.21875 1669.097656 708.3125 1670.066406 728.609375 L 1681.902344 728.609375 C 1680.234375 691.519531 1662.761719 655.195312 1630.277344 629.386719 "/>
<path style=" stroke:none;fill-rule:nonzero;fill:rgb(100%,100%,100%);fill-opacity:1;" d="M 1248.460938 566.683594 L 1248.523438 566.664062 L 1261.722656 561.78125 L 1261.742188 561.792969 L 1276.925781 556.199219 L 1264.714844 549.925781 C 1220.101562 568.714844 1200.136719 577.121094 1200.136719 577.121094 L 1205.039062 583.605469 L 1248.441406 566.691406 Z M 1248.460938 566.683594 "/>
<path style=" stroke:none;fill-rule:nonzero;fill:rgb(100%,100%,100%);fill-opacity:1;" d="M 865.152344 602.433594 C 848.75 613.046875 833.445312 629.261719 819.230469 651.082031 C 862.476562 601.09375 913.167969 586.363281 971.226562 603.019531 C 957.609375 595.863281 944.472656 591.167969 931.8125 588.917969 C 964.621094 589.863281 994.859375 601.457031 1019.117188 620.410156 C 975.75 566.761719 894.429688 559.1875 835.730469 603.953125 C 799.402344 631.65625 780.125 673.015625 780.246094 713.796875 C 788.3125 664.3125 820.804688 622.832031 865.152344 602.433594 "/>
<path style=" stroke:none;fill-rule:nonzero;fill:rgb(100%,100%,100%);fill-opacity:1;" d="M 988.652344 637.914062 C 980.015625 647.59375 974.199219 656.355469 971.207031 664.203125 C 974.199219 666.304688 975.695312 667.355469 975.695312 667.355469 C 983.710938 655.796875 987.71875 650.015625 987.71875 650.015625 C 985.320312 657.53125 984.117188 661.289062 984.117188 661.289062 L 1098.566406 728.609375 L 1129.113281 728.609375 Z M 988.652344 637.914062 "/>
<path style=" stroke:none;fill-rule:nonzero;fill:rgb(93.023682%,11.987305%,13.949585%);fill-opacity:1;" d="M 1423.597656 401.988281 C 1463.351562 402.863281 1500.867188 423.640625 1530.15625 475.003906 C 1536.785156 475.726562 1564.328125 478.515625 1566.851562 481.871094 L 1598.175781 523.5 C 1590.609375 517.019531 1584.921875 512.152344 1578.433594 507.523438 L 1555.476562 525.683594 L 1444.019531 504.21875 L 1586.203125 551.613281 L 1608.738281 531.316406 C 1592.738281 448.714844 1498.304688 403.257812 1419.253906 376.734375 L 1413.058594 376.414062 L 1401.882812 384.894531 L 1405.792969 388.648438 Z M 1423.597656 401.988281 "/>
<path style=" stroke:none;fill-rule:nonzero;fill:rgb(93.023682%,11.987305%,13.949585%);fill-opacity:1;" d="M 1417.597656 688.769531 C 1425.859375 663.488281 1440.972656 638.683594 1461.492188 616.476562 L 1461.5625 616.398438 C 1462.472656 615.414062 1463.394531 614.433594 1464.328125 613.457031 L 1464.339844 613.445312 C 1465.289062 612.457031 1466.246094 611.46875 1467.21875 610.488281 L 1467.335938 610.371094 C 1491.269531 586.21875 1521.136719 564.527344 1549.773438 547.871094 C 1471.730469 575.757812 1416.472656 636.019531 1383.972656 728.609375 L 1407.65625 728.609375 C 1409.601562 714.925781 1412.902344 701.640625 1417.597656 688.769531 "/>
<path style=" stroke:none;fill-rule:nonzero;fill:rgb(93.023682%,11.987305%,13.949585%);fill-opacity:1;" d="M 1327.992188 712.308594 C 1306.78125 583.703125 1239.742188 582.863281 1361.160156 548.179688 L 1400.5 549.984375 C 1400.5 549.984375 1383.980469 620 1351.789062 728.609375 L 1354.234375 728.609375 C 1366.445312 699.621094 1391.628906 638.625 1425.140625 551.113281 L 1491.5625 554.15625 L 1521.222656 545.042969 L 1404.453125 510.070312 L 1233.0625 589.609375 L 1234.902344 593.109375 L 1245.648438 589.359375 C 1275.832031 621.824219 1289.484375 657.546875 1297.941406 708.085938 C 1288.167969 715.5625 1277.492188 722.402344 1265.921875 728.609375 L 1305.464844 728.609375 C 1314.113281 723.558594 1321.667969 718.128906 1327.992188 712.308594 "/>
<path style=" stroke:none;fill-rule:evenodd;fill:rgb(93.023682%,11.987305%,13.949585%);fill-opacity:1;" d="M 1000.707031 977.492188 L 766.523438 966.914062 L 1002.546875 956.25 Z M 1000.707031 977.492188 "/>
<path style=" stroke:none;fill-rule:evenodd;fill:rgb(93.023682%,11.987305%,13.949585%);fill-opacity:1;" d="M 1442.972656 977.480469 L 1676.871094 966.914062 L 1444.800781 956.429688 Z M 1442.972656 977.480469 "/>
<path style=" stroke:none;fill-rule:nonzero;fill:rgb(93.023682%,11.987305%,13.949585%);fill-opacity:1;" d="M 741.234375 910.945312 C 734.570312 910.945312 728.722656 909.65625 723.691406 907.082031 C 718.660156 904.507812 714.980469 900.6875 712.65625 895.617188 C 710.328125 890.550781 709.816406 884.324219 711.121094 876.933594 L 717.652344 839.898438 L 746.875 839.898438 L 740.65625 875.171875 C 740.203125 877.746094 740.351562 879.816406 741.113281 881.382812 C 741.875 882.953125 743.402344 883.734375 745.695312 883.734375 C 750.117188 883.734375 752.808594 881.023438 753.765625 875.589844 L 773.832031 761.800781 L 803.644531 761.800781 L 784.097656 872.652344 C 782.714844 880.488281 779.976562 887.277344 775.886719 893.015625 C 771.796875 898.753906 766.761719 903.175781 760.785156 906.285156 C 754.804688 909.390625 748.289062 910.945312 741.234375 910.945312 "/>
<path style=" stroke:none;fill-rule:nonzero;fill:rgb(93.023682%,11.987305%,13.949585%);fill-opacity:1;" d="M 826.300781 910.945312 C 813.984375 910.945312 805.523438 907.488281 800.921875 900.574219 C 796.316406 893.660156 795.199219 883.484375 797.570312 870.046875 L 816.65625 761.800781 L 845.375 761.800781 L 826.496094 868.871094 C 826.0625 871.335938 825.785156 873.699219 825.664062 875.96875 C 825.546875 878.234375 825.863281 880.097656 826.613281 881.550781 C 827.363281 883.007812 828.859375 883.734375 831.097656 883.734375 C 833.394531 883.734375 835.171875 883.023438 836.429688 881.59375 C 837.691406 880.167969 838.648438 878.304688 839.304688 876.007812 C 839.960938 873.714844 840.507812 871.335938 840.941406 868.871094 L 859.820312 761.800781 L 888.542969 761.800781 L 869.453125 870.046875 C 867.085938 883.484375 862.378906 893.660156 855.339844 900.574219 C 848.296875 907.488281 838.617188 910.945312 826.300781 910.945312 "/>
<path style=" stroke:none;fill-rule:nonzero;fill:rgb(93.023682%,11.987305%,13.949585%);fill-opacity:1;" d="M 912.121094 910.945312 C 898.628906 910.945312 889.496094 907.585938 884.714844 900.867188 C 879.941406 894.148438 878.84375 883.457031 881.429688 868.789062 L 883.976562 854.34375 L 913.203125 854.34375 L 909.945312 872.820312 C 909.339844 876.234375 909.386719 878.90625 910.082031 880.839844 C 910.777344 882.769531 912.414062 883.734375 914.988281 883.734375 C 917.675781 883.734375 919.675781 882.953125 920.988281 881.382812 C 922.300781 879.816406 923.273438 877.242188 923.902344 873.660156 C 924.703125 869.125 924.921875 865.332031 924.566406 862.277344 C 924.207031 859.230469 923.167969 856.316406 921.445312 853.546875 C 919.722656 850.773438 917.226562 847.542969 913.960938 843.847656 L 902.914062 831.25 C 894.652344 821.902344 891.582031 811.207031 893.707031 799.171875 C 895.925781 786.574219 900.542969 776.972656 907.5625 770.367188 C 914.574219 763.757812 923.625 760.457031 934.710938 760.457031 C 948.257812 760.457031 957.238281 764.066406 961.648438 771.289062 C 966.054688 778.511719 966.960938 789.484375 964.367188 804.210938 L 934.300781 804.210938 L 936.09375 794.046875 C 936.449219 792.03125 936.152344 790.464844 935.203125 789.34375 C 934.25 788.226562 932.796875 787.664062 930.835938 787.664062 C 928.484375 787.664062 926.648438 788.324219 925.324219 789.636719 C 924 790.953125 923.15625 792.648438 922.789062 794.71875 C 922.425781 796.789062 922.589844 799.03125 923.285156 801.4375 C 923.980469 803.84375 925.703125 806.617188 928.453125 809.75 L 942.613281 826.125 C 945.457031 829.375 947.988281 832.804688 950.207031 836.414062 C 952.425781 840.027344 953.980469 844.222656 954.871094 849.011719 C 955.761719 853.796875 955.601562 859.632812 954.386719 866.519531 C 951.9375 880.40625 947.460938 891.28125 940.949219 899.144531 C 934.441406 907.011719 924.832031 910.945312 912.121094 910.945312 "/>
<path style=" stroke:none;fill-rule:nonzero;fill:rgb(93.023682%,11.987305%,13.949585%);fill-opacity:1;" d="M 972.738281 909.601562 L 993.792969 790.183594 L 976.242188 790.183594 L 981.246094 761.800781 L 1045.910156 761.800781 L 1040.90625 790.183594 L 1023.351562 790.183594 L 1002.296875 909.601562 Z M 972.738281 909.601562 "/>
<path style=" stroke:none;fill-rule:nonzero;fill:rgb(93.023682%,11.987305%,13.949585%);fill-opacity:1;" d="M 1031.519531 909.601562 L 1057.578125 761.800781 L 1116.699219 761.800781 L 1111.664062 790.351562 L 1082.609375 790.351562 L 1077.53125 819.15625 L 1105.410156 819.15625 L 1100.507812 846.953125 L 1072.628906 846.953125 L 1066.660156 880.796875 L 1097.648438 880.796875 L 1092.570312 909.601562 Z M 1031.519531 909.601562 "/>
<path style=" stroke:none;fill-rule:nonzero;fill:rgb(93.023682%,11.987305%,13.949585%);fill-opacity:1;" d="M 1105.75 909.601562 L 1131.8125 761.800781 L 1162.210938 761.800781 L 1163.332031 832.59375 L 1175.816406 761.800781 L 1204.367188 761.800781 L 1178.308594 909.601562 L 1149.417969 909.601562 L 1147.667969 835.699219 L 1134.640625 909.601562 Z M 1105.75 909.601562 "/>
<path style=" stroke:none;fill-rule:nonzero;fill:rgb(100%,100%,100%);fill-opacity:1;" d="M 1238.597656 909.601562 L 1264.65625 761.800781 L 1309.671875 761.800781 L 1306.210938 851.910156 L 1334.445312 761.800781 L 1379.875 761.800781 L 1353.8125 909.601562 L 1326.773438 909.601562 L 1345.550781 803.117188 L 1309.808594 909.601562 L 1283.273438 909.601562 L 1284.078125 803.117188 L 1265.300781 909.601562 Z M 1238.597656 909.601562 "/>
<path style=" stroke:none;fill-rule:nonzero;fill:rgb(100%,100%,100%);fill-opacity:1;" d="M 1410.4375 883.734375 C 1414.917969 883.734375 1417.921875 879.398438 1419.453125 870.71875 L 1432.171875 798.582031 C 1433.453125 791.304688 1431.914062 787.664062 1427.546875 787.664062 C 1422.621094 787.664062 1419.5 791.390625 1418.1875 798.835938 L 1405.480469 870.886719 C 1404.671875 875.480469 1404.652344 878.769531 1405.421875 880.753906 C 1406.191406 882.742188 1407.863281 883.734375 1410.4375 883.734375 M 1405.386719 910.945312 C 1393.574219 910.945312 1385.175781 907.375 1380.195312 900.238281 C 1375.210938 893.097656 1373.90625 882.785156 1376.285156 869.292969 L 1388.664062 799.085938 C 1390.898438 786.433594 1395.683594 776.832031 1403.023438 770.28125 C 1410.363281 763.734375 1420 760.457031 1431.921875 760.457031 C 1443.847656 760.457031 1452.328125 763.734375 1457.359375 770.28125 C 1462.390625 776.832031 1463.789062 786.433594 1461.558594 799.085938 L 1449.179688 869.292969 C 1446.800781 882.785156 1441.859375 893.097656 1434.359375 900.238281 C 1426.859375 907.375 1417.199219 910.945312 1405.386719 910.945312 "/>
<path style=" stroke:none;fill-rule:nonzero;fill:rgb(100%,100%,100%);fill-opacity:1;" d="M 1470.117188 909.601562 L 1491.175781 790.183594 L 1473.621094 790.183594 L 1478.625 761.800781 L 1543.289062 761.800781 L 1538.285156 790.183594 L 1520.734375 790.183594 L 1499.679688 909.601562 Z M 1470.117188 909.601562 "/>
<path style=" stroke:none;fill-rule:nonzero;fill:rgb(100%,100%,100%);fill-opacity:1;" d="M 1568.980469 883.734375 C 1573.460938 883.734375 1576.464844 879.398438 1577.996094 870.71875 L 1590.714844 798.582031 C 1591.996094 791.304688 1590.457031 787.664062 1586.089844 787.664062 C 1581.164062 787.664062 1578.042969 791.390625 1576.730469 798.835938 L 1564.023438 870.886719 C 1563.214844 875.480469 1563.195312 878.769531 1563.964844 880.753906 C 1564.734375 882.742188 1566.40625 883.734375 1568.980469 883.734375 M 1563.933594 910.945312 C 1552.117188 910.945312 1543.722656 907.375 1538.738281 900.238281 C 1533.753906 893.097656 1532.449219 882.785156 1534.828125 869.292969 L 1547.207031 799.085938 C 1549.441406 786.433594 1554.226562 776.832031 1561.566406 770.28125 C 1568.90625 763.734375 1578.542969 760.457031 1590.46875 760.457031 C 1602.390625 760.457031 1610.871094 763.734375 1615.902344 770.28125 C 1620.933594 776.832031 1622.332031 786.433594 1620.101562 799.085938 L 1607.722656 869.292969 C 1605.34375 882.785156 1600.402344 893.097656 1592.902344 900.238281 C 1585.402344 907.375 1575.742188 910.945312 1563.933594 910.945312 "/>
<path style=" stroke:none;fill-rule:nonzero;fill:rgb(100%,100%,100%);fill-opacity:1;" d="M 1650.84375 910.945312 C 1637.351562 910.945312 1628.21875 907.585938 1623.441406 900.867188 C 1618.664062 894.148438 1617.566406 883.457031 1620.152344 868.789062 L 1622.699219 854.34375 L 1651.925781 854.34375 L 1648.667969 872.820312 C 1648.0625 876.234375 1648.109375 878.90625 1648.804688 880.839844 C 1649.5 882.769531 1651.136719 883.734375 1653.710938 883.734375 C 1656.398438 883.734375 1658.398438 882.953125 1659.710938 881.382812 C 1661.023438 879.816406 1661.996094 877.242188 1662.625 873.660156 C 1663.425781 869.125 1663.644531 865.332031 1663.289062 862.277344 C 1662.929688 859.230469 1661.890625 856.316406 1660.167969 853.546875 C 1658.445312 850.773438 1655.949219 847.542969 1652.683594 843.847656 L 1641.636719 831.25 C 1633.375 821.902344 1630.304688 811.207031 1632.429688 799.171875 C 1634.648438 786.574219 1639.269531 776.972656 1646.28125 770.367188 C 1653.296875 763.757812 1662.347656 760.457031 1673.433594 760.457031 C 1686.984375 760.457031 1695.960938 764.066406 1700.371094 771.289062 C 1704.777344 778.511719 1705.683594 789.484375 1703.089844 804.210938 L 1673.023438 804.210938 L 1674.816406 794.046875 C 1675.171875 792.03125 1674.875 790.464844 1673.925781 789.34375 C 1672.976562 788.226562 1671.519531 787.664062 1669.558594 787.664062 C 1667.207031 787.664062 1665.371094 788.324219 1664.046875 789.636719 C 1662.722656 790.953125 1661.878906 792.648438 1661.515625 794.71875 C 1661.148438 796.789062 1661.3125 799.03125 1662.007812 801.4375 C 1662.703125 803.84375 1664.425781 806.617188 1667.175781 809.75 L 1681.335938 826.125 C 1684.179688 829.375 1686.710938 832.804688 1688.929688 836.414062 C 1691.148438 840.027344 1692.703125 844.222656 1693.59375 849.011719 C 1694.484375 853.796875 1694.324219 859.632812 1693.109375 866.519531 C 1690.660156 880.40625 1686.183594 891.28125 1679.671875 899.144531 C 1673.164062 907.011719 1663.554688 910.945312 1650.84375 910.945312 "/>
<path style=" stroke:none;fill-rule:nonzero;fill:rgb(100%,100%,100%);fill-opacity:1;" d="M 1044.246094 993.90625 C 1041.273438 993.773438 1038.710938 993.011719 1036.554688 991.621094 C 1034.402344 990.226562 1032.742188 988.328125 1031.574219 985.921875 C 1030.410156 983.511719 1029.828125 980.730469 1029.828125 977.570312 L 1029.828125 953.472656 C 1029.828125 948.355469 1031.011719 944.390625 1033.382812 941.578125 C 1035.75 938.765625 1039.371094 937.292969 1044.246094 937.160156 L 1044.246094 944.695312 C 1042.816406 944.941406 1041.804688 945.511719 1041.210938 946.402344 C 1040.617188 947.296875 1040.324219 948.582031 1040.324219 950.253906 L 1040.324219 980.730469 C 1040.324219 982.140625 1040.699219 983.273438 1041.453125 984.128906 C 1042.203125 984.984375 1043.132812 985.5625 1044.246094 985.863281 Z M 1044.246094 993.90625 "/>
<path style=" stroke:none;fill-rule:nonzero;fill:rgb(100%,100%,100%);fill-opacity:1;" d="M 1055.785156 972.460938 L 1061.652344 972.460938 L 1061.652344 947.433594 Z M 1061.652344 988.628906 L 1061.652344 980.757812 L 1046.921875 980.757812 L 1046.921875 972.996094 L 1056.320312 938.910156 L 1071.78125 938.910156 L 1071.78125 972.460938 L 1074.433594 972.460938 L 1074.433594 980.757812 L 1071.78125 980.757812 L 1071.78125 988.628906 Z M 1061.652344 988.628906 "/>
<path style=" stroke:none;fill-rule:nonzero;fill:rgb(100%,100%,100%);fill-opacity:1;" d="M 1090.40625 956.605469 C 1092.152344 956.605469 1093.027344 955.023438 1093.027344 951.863281 C 1093.027344 950.808594 1092.84375 949.8125 1092.480469 948.871094 C 1092.113281 947.933594 1091.421875 947.460938 1090.40625 947.460938 C 1089.390625 947.460938 1088.695312 947.933594 1088.332031 948.871094 C 1087.964844 949.8125 1087.78125 950.808594 1087.78125 951.863281 C 1087.78125 955.023438 1088.65625 956.605469 1090.40625 956.605469 M 1090.40625 979.316406 C 1092.210938 979.316406 1093.113281 977.859375 1093.113281 974.945312 L 1093.113281 970.402344 C 1093.113281 968.898438 1092.910156 967.722656 1092.507812 966.875 C 1092.101562 966.027344 1091.402344 965.605469 1090.40625 965.605469 C 1089.371094 965.605469 1088.664062 966.027344 1088.289062 966.875 C 1087.910156 967.722656 1087.722656 968.898438 1087.722656 970.402344 L 1087.722656 974.945312 C 1087.722656 977.859375 1088.617188 979.316406 1090.40625 979.316406 M 1090.40625 989.136719 C 1085.738281 989.136719 1082.410156 987.800781 1080.414062 985.128906 C 1078.421875 982.460938 1077.425781 978.679688 1077.425781 973.789062 L 1077.425781 970.484375 C 1077.425781 967.964844 1077.726562 965.925781 1078.328125 964.363281 C 1078.929688 962.800781 1080.039062 961.609375 1081.65625 960.78125 C 1080.132812 960.160156 1079.050781 959.121094 1078.414062 957.660156 C 1077.773438 956.203125 1077.453125 954.394531 1077.453125 952.230469 L 1077.453125 950.933594 C 1077.453125 946.53125 1078.558594 943.328125 1080.769531 941.324219 C 1082.980469 939.320312 1086.191406 938.320312 1090.40625 938.320312 C 1094.730469 938.320312 1097.96875 939.351562 1100.109375 941.410156 C 1102.253906 943.46875 1103.328125 946.773438 1103.328125 951.328125 C 1103.328125 953.71875 1103.046875 955.71875 1102.480469 957.335938 C 1101.917969 958.957031 1100.796875 960.121094 1099.125 960.835938 C 1100.910156 961.757812 1102.066406 962.96875 1102.59375 964.460938 C 1103.121094 965.957031 1103.382812 967.964844 1103.382812 970.484375 L 1103.382812 973.789062 C 1103.382812 978.679688 1102.386719 982.460938 1100.394531 985.128906 C 1098.398438 987.800781 1095.070312 989.136719 1090.40625 989.136719 "/>
<path style=" stroke:none;fill-rule:nonzero;fill:rgb(100%,100%,100%);fill-opacity:1;" d="M 1106.851562 993.90625 L 1106.851562 985.863281 C 1107.964844 985.5625 1108.894531 984.984375 1109.648438 984.128906 C 1110.398438 983.273438 1110.777344 982.140625 1110.777344 980.730469 L 1110.777344 950.253906 C 1110.777344 948.582031 1110.480469 947.296875 1109.886719 946.402344 C 1109.292969 945.511719 1108.285156 944.941406 1106.851562 944.695312 L 1106.851562 937.160156 C 1111.726562 937.292969 1115.347656 938.765625 1117.71875 941.578125 C 1120.085938 944.390625 1121.273438 948.355469 1121.273438 953.472656 L 1121.273438 977.570312 C 1121.273438 980.730469 1120.6875 983.542969 1119.523438 986.007812 C 1118.355469 988.46875 1116.695312 990.402344 1114.542969 991.804688 C 1112.386719 993.207031 1109.824219 993.90625 1106.851562 993.90625 "/>
<path style=" stroke:none;fill-rule:nonzero;fill:rgb(100%,100%,100%);fill-opacity:1;" d="M 1153.210938 960.976562 C 1154.960938 960.976562 1155.835938 959.800781 1155.835938 957.449219 L 1155.835938 951.300781 C 1155.835938 948.851562 1155.007812 947.628906 1153.351562 947.628906 C 1152.1875 947.628906 1151.492188 948.125 1151.265625 949.113281 C 1151.039062 950.101562 1150.925781 951.367188 1150.925781 952.90625 L 1150.925781 956.914062 C 1150.925781 959.625 1151.6875 960.976562 1153.210938 960.976562 M 1152.703125 989.054688 C 1150.617188 989.054688 1148.667969 988.691406 1146.863281 987.964844 C 1145.058594 987.242188 1143.597656 986.15625 1142.488281 984.707031 C 1141.378906 983.257812 1140.824219 981.460938 1140.824219 979.316406 L 1140.824219 973.957031 L 1150.390625 973.957031 L 1150.390625 974.972656 C 1150.390625 975.800781 1150.433594 976.628906 1150.515625 977.457031 C 1150.601562 978.285156 1150.816406 978.96875 1151.167969 979.515625 C 1151.511719 980.0625 1152.082031 980.332031 1152.875 980.332031 C 1153.980469 980.332031 1154.753906 980.027344 1155.1875 979.417969 C 1155.621094 978.804688 1155.835938 977.925781 1155.835938 976.777344 L 1155.835938 966.816406 C 1155.367188 967.683594 1154.660156 968.390625 1153.71875 968.933594 C 1152.777344 969.480469 1151.632812 969.753906 1150.277344 969.753906 C 1147.550781 969.753906 1145.441406 969.203125 1143.957031 968.101562 C 1142.46875 967 1141.445312 965.359375 1140.878906 963.179688 C 1140.316406 960.996094 1140.035156 958.269531 1140.035156 954.996094 C 1140.035156 951.683594 1140.4375 948.792969 1141.246094 946.316406 C 1142.054688 943.84375 1143.40625 941.921875 1145.296875 940.546875 C 1147.1875 939.175781 1149.75 938.488281 1152.984375 938.488281 C 1156.445312 938.488281 1159.144531 939.078125 1161.085938 940.253906 C 1163.019531 941.429688 1164.390625 943.195312 1165.1875 945.558594 C 1165.988281 947.917969 1166.386719 950.875 1166.386719 954.429688 L 1166.386719 967.863281 C 1166.386719 971.304688 1166.242188 974.34375 1165.953125 976.976562 C 1165.660156 979.609375 1165.050781 981.820312 1164.132812 983.605469 C 1163.210938 985.394531 1161.835938 986.75 1160.011719 987.671875 C 1158.1875 988.59375 1155.75 989.054688 1152.703125 989.054688 "/>
<path style=" stroke:none;fill-rule:nonzero;fill:rgb(100%,100%,100%);fill-opacity:1;" d="M 1182.921875 960.976562 C 1184.671875 960.976562 1185.546875 959.800781 1185.546875 957.449219 L 1185.546875 951.300781 C 1185.546875 948.851562 1184.71875 947.628906 1183.0625 947.628906 C 1181.898438 947.628906 1181.203125 948.125 1180.976562 949.113281 C 1180.75 950.101562 1180.636719 951.367188 1180.636719 952.90625 L 1180.636719 956.914062 C 1180.636719 959.625 1181.398438 960.976562 1182.921875 960.976562 M 1182.414062 989.054688 C 1180.328125 989.054688 1178.378906 988.691406 1176.574219 987.964844 C 1174.769531 987.242188 1173.308594 986.15625 1172.199219 984.707031 C 1171.089844 983.257812 1170.535156 981.460938 1170.535156 979.316406 L 1170.535156 973.957031 L 1180.101562 973.957031 L 1180.101562 974.972656 C 1180.101562 975.800781 1180.144531 976.628906 1180.226562 977.457031 C 1180.3125 978.285156 1180.527344 978.96875 1180.878906 979.515625 C 1181.222656 980.0625 1181.792969 980.332031 1182.585938 980.332031 C 1183.695312 980.332031 1184.464844 980.027344 1184.898438 979.417969 C 1185.332031 978.804688 1185.546875 977.925781 1185.546875 976.777344 L 1185.546875 966.816406 C 1185.078125 967.683594 1184.371094 968.390625 1183.429688 968.933594 C 1182.488281 969.480469 1181.34375 969.753906 1179.988281 969.753906 C 1177.261719 969.753906 1175.152344 969.203125 1173.667969 968.101562 C 1172.179688 967 1171.15625 965.359375 1170.589844 963.179688 C 1170.027344 960.996094 1169.746094 958.269531 1169.746094 954.996094 C 1169.746094 951.683594 1170.152344 948.792969 1170.957031 946.316406 C 1171.765625 943.84375 1173.117188 941.921875 1175.007812 940.546875 C 1176.898438 939.175781 1179.460938 938.488281 1182.695312 938.488281 C 1186.15625 938.488281 1188.855469 939.078125 1190.796875 940.253906 C 1192.730469 941.429688 1194.101562 943.195312 1194.902344 945.558594 C 1195.699219 947.917969 1196.097656 950.875 1196.097656 954.429688 L 1196.097656 967.863281 C 1196.097656 971.304688 1195.953125 974.34375 1195.664062 976.976562 C 1195.371094 979.609375 1194.761719 981.820312 1193.84375 983.605469 C 1192.921875 985.394531 1191.546875 986.75 1189.722656 987.671875 C 1187.898438 988.59375 1185.460938 989.054688 1182.414062 989.054688 "/>
<path style=" stroke:none;fill-rule:nonzero;fill:rgb(100%,100%,100%);fill-opacity:1;" d="M 1212.492188 979.910156 C 1213.660156 979.910156 1214.355469 979.417969 1214.582031 978.429688 C 1214.804688 977.441406 1214.917969 976.175781 1214.917969 974.632812 L 1214.917969 970.628906 C 1214.917969 967.917969 1214.15625 966.5625 1212.632812 966.5625 C 1210.882812 966.5625 1210.007812 967.742188 1210.007812 970.089844 L 1210.007812 976.242188 C 1210.007812 978.6875 1210.835938 979.910156 1212.492188 979.910156 M 1212.859375 989.054688 C 1209.417969 989.054688 1206.722656 988.464844 1204.773438 987.289062 C 1202.828125 986.113281 1201.457031 984.339844 1200.65625 981.96875 C 1199.855469 979.601562 1199.457031 976.648438 1199.457031 973.109375 L 1199.457031 959.679688 C 1199.457031 956.238281 1199.601562 953.199219 1199.894531 950.566406 C 1200.183594 947.929688 1200.792969 945.722656 1201.714844 943.933594 C 1202.636719 942.148438 1204.007812 940.792969 1205.832031 939.871094 C 1207.65625 938.949219 1210.09375 938.488281 1213.140625 938.488281 C 1215.230469 938.488281 1217.175781 938.851562 1218.980469 939.574219 C 1220.789062 940.300781 1222.246094 941.382812 1223.355469 942.820312 C 1224.464844 944.257812 1225.019531 946.058594 1225.019531 948.222656 L 1225.019531 953.585938 L 1215.457031 953.585938 L 1215.457031 952.570312 C 1215.457031 951.742188 1215.414062 950.914062 1215.328125 950.085938 C 1215.242188 949.257812 1215.03125 948.570312 1214.691406 948.027344 C 1214.355469 947.480469 1213.78125 947.207031 1212.972656 947.207031 C 1211.863281 947.207031 1211.089844 947.511719 1210.65625 948.125 C 1210.226562 948.738281 1210.007812 949.617188 1210.007812 950.761719 L 1210.007812 960.722656 C 1210.480469 959.839844 1211.183594 959.128906 1212.125 958.59375 C 1213.066406 958.054688 1214.214844 957.789062 1215.566406 957.789062 C 1218.3125 957.789062 1220.425781 958.339844 1221.902344 959.4375 C 1223.378906 960.539062 1224.398438 962.179688 1224.964844 964.363281 C 1225.527344 966.546875 1225.808594 969.273438 1225.808594 972.546875 C 1225.808594 975.855469 1225.40625 978.75 1224.597656 981.222656 C 1223.789062 983.695312 1222.4375 985.621094 1220.546875 986.992188 C 1218.65625 988.367188 1216.09375 989.054688 1212.859375 989.054688 "/>
<path style=" stroke:none;fill-rule:nonzero;fill:rgb(100%,100%,100%);fill-opacity:1;" d="M 1237.011719 972.460938 L 1242.878906 972.460938 L 1242.878906 947.433594 Z M 1242.878906 988.628906 L 1242.878906 980.757812 L 1228.152344 980.757812 L 1228.152344 972.996094 L 1237.546875 938.910156 L 1253.011719 938.910156 L 1253.011719 972.460938 L 1255.664062 972.460938 L 1255.664062 980.757812 L 1253.011719 980.757812 L 1253.011719 988.628906 Z M 1242.878906 988.628906 "/>
<path style=" stroke:none;fill-rule:nonzero;fill:rgb(100%,100%,100%);fill-opacity:1;" d="M 1259.105469 988.601562 L 1259.105469 986.230469 C 1259.105469 983.765625 1259.484375 981.550781 1260.246094 979.585938 C 1261.007812 977.621094 1261.992188 975.796875 1263.195312 974.113281 C 1264.398438 972.429688 1265.667969 970.777344 1267.003906 969.160156 C 1268.304688 967.582031 1269.539062 965.957031 1270.714844 964.292969 C 1271.890625 962.628906 1272.851562 960.824219 1273.59375 958.875 C 1274.335938 956.929688 1274.707031 954.742188 1274.707031 952.3125 C 1274.707031 951.148438 1274.535156 950.144531 1274.1875 949.308594 C 1273.835938 948.472656 1273.117188 948.054688 1272.027344 948.054688 C 1270.371094 948.054688 1269.542969 949.53125 1269.542969 952.484375 L 1269.542969 958.550781 L 1259.105469 958.550781 C 1259.085938 958.117188 1259.0625 957.628906 1259.03125 957.082031 C 1259.003906 956.539062 1258.992188 956.011719 1258.992188 955.503906 C 1258.992188 951.929688 1259.367188 948.894531 1260.121094 946.402344 C 1260.871094 943.910156 1262.203125 942.011719 1264.113281 940.703125 C 1266.019531 939.394531 1268.707031 938.742188 1272.167969 938.742188 C 1276.289062 938.742188 1279.488281 939.898438 1281.777344 942.214844 C 1284.0625 944.527344 1285.203125 947.828125 1285.203125 952.117188 C 1285.203125 955.035156 1284.828125 957.585938 1284.074219 959.777344 C 1283.324219 961.96875 1282.324219 963.964844 1281.085938 965.761719 C 1279.84375 967.554688 1278.480469 969.347656 1276.992188 971.136719 C 1275.9375 972.394531 1274.917969 973.683594 1273.933594 975 C 1272.945312 976.316406 1272.074219 977.726562 1271.320312 979.234375 L 1284.867188 979.234375 L 1284.867188 988.601562 Z M 1259.105469 988.601562 "/>
<path style=" stroke:none;fill-rule:nonzero;fill:rgb(100%,100%,100%);fill-opacity:1;" d="M 1288.757812 967.691406 L 1303.316406 967.691406 L 1303.316406 974.238281 L 1288.757812 974.238281 Z M 1288.757812 967.691406 "/>
<path style=" stroke:none;fill-rule:nonzero;fill:rgb(100%,100%,100%);fill-opacity:1;" d="M 1320.472656 989.308594 C 1316.652344 989.308594 1313.535156 988.363281 1311.117188 986.472656 C 1308.703125 984.578125 1307.492188 981.679688 1307.492188 977.765625 L 1307.492188 970.371094 L 1317.820312 970.371094 L 1317.820312 974.632812 C 1317.820312 975.519531 1317.871094 976.375 1317.976562 977.203125 C 1318.078125 978.03125 1318.320312 978.707031 1318.695312 979.234375 C 1319.070312 979.761719 1319.664062 980.023438 1320.472656 980.023438 C 1321.542969 980.023438 1322.25 979.660156 1322.589844 978.9375 C 1322.925781 978.214844 1323.097656 977.285156 1323.097656 976.15625 L 1323.097656 966.394531 C 1323.097656 965.585938 1323.042969 964.785156 1322.941406 963.996094 C 1322.835938 963.207031 1322.605469 962.546875 1322.25 962.019531 C 1321.894531 961.496094 1321.320312 961.230469 1320.527344 961.230469 C 1318.648438 961.230469 1317.707031 962.597656 1317.707031 965.324219 L 1308.59375 965.324219 L 1308.59375 938.910156 L 1332.265625 938.910156 L 1332.265625 948.222656 L 1318.019531 948.222656 L 1318.019531 955.222656 C 1318.507812 954.617188 1319.167969 954.089844 1320.007812 953.625 C 1320.84375 953.164062 1321.828125 952.9375 1322.957031 952.9375 C 1325.210938 952.9375 1327.050781 953.367188 1328.472656 954.234375 C 1329.890625 955.097656 1330.984375 956.304688 1331.746094 957.847656 C 1332.507812 959.386719 1333.035156 961.175781 1333.324219 963.207031 C 1333.617188 965.238281 1333.761719 967.417969 1333.761719 969.753906 C 1333.761719 972.742188 1333.609375 975.4375 1333.296875 977.835938 C 1332.988281 980.234375 1332.375 982.289062 1331.460938 984 C 1330.550781 985.714844 1329.214844 987.027344 1327.457031 987.9375 C 1325.695312 988.851562 1323.367188 989.308594 1320.472656 989.308594 "/>
<path style=" stroke:none;fill-rule:nonzero;fill:rgb(100%,100%,100%);fill-opacity:1;" d="M 1350.183594 956.605469 C 1351.933594 956.605469 1352.808594 955.023438 1352.808594 951.863281 C 1352.808594 950.808594 1352.625 949.8125 1352.257812 948.871094 C 1351.890625 947.933594 1351.199219 947.460938 1350.183594 947.460938 C 1349.167969 947.460938 1348.476562 947.933594 1348.109375 948.871094 C 1347.742188 949.8125 1347.558594 950.808594 1347.558594 951.863281 C 1347.558594 955.023438 1348.433594 956.605469 1350.183594 956.605469 M 1350.183594 979.316406 C 1351.988281 979.316406 1352.890625 977.859375 1352.890625 974.945312 L 1352.890625 970.402344 C 1352.890625 968.898438 1352.691406 967.722656 1352.285156 966.875 C 1351.878906 966.027344 1351.179688 965.605469 1350.183594 965.605469 C 1349.148438 965.605469 1348.445312 966.027344 1348.066406 966.875 C 1347.691406 967.722656 1347.503906 968.898438 1347.503906 970.402344 L 1347.503906 974.945312 C 1347.503906 977.859375 1348.394531 979.316406 1350.183594 979.316406 M 1350.183594 989.136719 C 1345.519531 989.136719 1342.1875 987.800781 1340.195312 985.128906 C 1338.199219 982.460938 1337.203125 978.679688 1337.203125 973.789062 L 1337.203125 970.484375 C 1337.203125 967.964844 1337.503906 965.925781 1338.105469 964.363281 C 1338.707031 962.800781 1339.820312 961.609375 1341.4375 960.78125 C 1339.914062 960.160156 1338.832031 959.121094 1338.191406 957.660156 C 1337.550781 956.203125 1337.230469 954.394531 1337.230469 952.230469 L 1337.230469 950.933594 C 1337.230469 946.53125 1338.335938 943.328125 1340.546875 941.324219 C 1342.757812 939.320312 1345.96875 938.320312 1350.183594 938.320312 C 1354.507812 938.320312 1357.746094 939.351562 1359.890625 941.410156 C 1362.035156 943.46875 1363.105469 946.773438 1363.105469 951.328125 C 1363.105469 953.71875 1362.824219 955.71875 1362.261719 957.335938 C 1361.695312 958.957031 1360.578125 960.121094 1358.902344 960.835938 C 1360.6875 961.757812 1361.847656 962.96875 1362.371094 964.460938 C 1362.898438 965.957031 1363.164062 967.964844 1363.164062 970.484375 L 1363.164062 973.789062 C 1363.164062 978.679688 1362.164062 982.460938 1360.171875 985.128906 C 1358.175781 987.800781 1354.847656 989.136719 1350.183594 989.136719 "/>
<path style=" stroke:none;fill-rule:nonzero;fill:rgb(100%,100%,100%);fill-opacity:1;" d="M 1379.273438 989.164062 C 1374.890625 989.164062 1371.703125 988.007812 1369.707031 985.695312 C 1367.714844 983.378906 1366.71875 979.894531 1366.71875 975.226562 L 1366.71875 970.035156 L 1376.902344 970.035156 L 1376.902344 975.253906 C 1376.902344 976.570312 1377.066406 977.6875 1377.398438 978.597656 C 1377.726562 979.511719 1378.464844 979.96875 1379.613281 979.96875 C 1380.777344 979.96875 1381.519531 979.472656 1381.839844 978.484375 C 1382.160156 977.5 1382.320312 975.886719 1382.320312 973.648438 L 1382.320312 972.40625 C 1382.320312 970.695312 1382.035156 969.199219 1381.460938 967.917969 C 1380.886719 966.640625 1379.761719 966 1378.089844 966 C 1377.882812 966 1377.699219 966.003906 1377.539062 966.015625 C 1377.378906 966.023438 1377.242188 966.039062 1377.128906 966.058594 L 1377.128906 957.140625 C 1378.839844 957.140625 1380.148438 956.757812 1381.050781 955.996094 C 1381.953125 955.234375 1382.40625 953.960938 1382.40625 952.171875 C 1382.40625 949.371094 1381.597656 947.96875 1379.980469 947.96875 C 1378.925781 947.96875 1378.214844 948.378906 1377.847656 949.195312 C 1377.480469 950.015625 1377.296875 951.054688 1377.296875 952.316406 L 1377.296875 953.8125 L 1367.027344 953.8125 C 1367.007812 953.585938 1366.996094 953.3125 1366.984375 952.992188 C 1366.976562 952.671875 1366.972656 952.363281 1366.972656 952.0625 C 1366.972656 947.507812 1368.035156 944.167969 1370.160156 942.042969 C 1372.285156 939.917969 1375.539062 938.855469 1379.921875 938.855469 C 1388.386719 938.855469 1392.621094 943.257812 1392.621094 952.0625 C 1392.621094 954.507812 1392.289062 956.523438 1391.632812 958.113281 C 1390.972656 959.703125 1389.75 960.816406 1387.964844 961.457031 C 1389.375 962.132812 1390.417969 963 1391.097656 964.054688 C 1391.773438 965.105469 1392.214844 966.414062 1392.421875 967.976562 C 1392.628906 969.535156 1392.730469 971.425781 1392.730469 973.648438 C 1392.730469 978.613281 1391.695312 982.441406 1389.613281 985.128906 C 1387.535156 987.820312 1384.089844 989.164062 1379.273438 989.164062 "/>
<path style=" stroke:none;fill-rule:nonzero;fill:rgb(100%,100%,100%);fill-opacity:1;" d="M 1408.984375 989.164062 C 1404.601562 989.164062 1401.414062 988.007812 1399.417969 985.695312 C 1397.425781 983.378906 1396.429688 979.894531 1396.429688 975.226562 L 1396.429688 970.035156 L 1406.613281 970.035156 L 1406.613281 975.253906 C 1406.613281 976.570312 1406.777344 977.6875 1407.109375 978.597656 C 1407.4375 979.511719 1408.175781 979.96875 1409.324219 979.96875 C 1410.488281 979.96875 1411.230469 979.472656 1411.550781 978.484375 C 1411.871094 977.5 1412.03125 975.886719 1412.03125 973.648438 L 1412.03125 972.40625 C 1412.03125 970.695312 1411.746094 969.199219 1411.171875 967.917969 C 1410.597656 966.640625 1409.472656 966 1407.800781 966 C 1407.59375 966 1407.410156 966.003906 1407.25 966.015625 C 1407.089844 966.023438 1406.953125 966.039062 1406.839844 966.058594 L 1406.839844 957.140625 C 1408.550781 957.140625 1409.859375 956.757812 1410.761719 955.996094 C 1411.664062 955.234375 1412.117188 953.960938 1412.117188 952.171875 C 1412.117188 949.371094 1411.308594 947.96875 1409.691406 947.96875 C 1408.636719 947.96875 1407.925781 948.378906 1407.558594 949.195312 C 1407.191406 950.015625 1407.007812 951.054688 1407.007812 952.316406 L 1407.007812 953.8125 L 1396.738281 953.8125 C 1396.71875 953.585938 1396.707031 953.3125 1396.695312 952.992188 C 1396.6875 952.671875 1396.683594 952.363281 1396.683594 952.0625 C 1396.683594 947.507812 1397.746094 944.167969 1399.871094 942.042969 C 1401.996094 939.917969 1405.25 938.855469 1409.632812 938.855469 C 1418.097656 938.855469 1422.332031 943.257812 1422.332031 952.0625 C 1422.332031 954.507812 1422 956.523438 1421.34375 958.113281 C 1420.683594 959.703125 1419.460938 960.816406 1417.675781 961.457031 C 1419.085938 962.132812 1420.128906 963 1420.808594 964.054688 C 1421.484375 965.105469 1421.925781 966.414062 1422.132812 967.976562 C 1422.339844 969.535156 1422.445312 971.425781 1422.445312 973.648438 C 1422.445312 978.613281 1421.40625 982.441406 1419.324219 985.128906 C 1417.246094 987.820312 1413.800781 989.164062 1408.984375 989.164062 "/>
</g>
</svg>
